<svg width="277" height="87" viewBox="0 0 277 87" fill="none" xmlns="http://www.w3.org/2000/svg">
<g clip-path="url(#clip0_41_293)">
<path d="M238.609 62.0377C238.14 61.4417 238.158 60.5652 238.678 60.0218C239.077 59.6011 239.667 59.3556 240.188 59.5485L241.108 59.8991C242.08 60.3548 244.631 61.8624 244.753 60.8457L245.95 50.5031C246.072 49.5039 244.961 48.8378 244.128 49.4163C241.177 51.4673 237.186 52.9222 233.801 51.2569C231.233 49.9948 230.955 47.8737 230.243 45.5773C230.156 45.2793 230.365 45.2267 229.809 45.2793C227.935 49.4689 224.082 53.974 219.292 55.3238C211.811 57.4274 205.928 53.0099 206.084 45.8402C206.084 45.7876 206.084 45.735 206.084 45.6825C207.438 35.2172 210.058 24.9448 212.002 14.5847C212.193 13.533 210.961 12.7967 210.128 13.4628C207.889 15.2509 206.119 17.5473 204.834 20.0014C204.383 20.8779 203.151 24.2962 202.578 24.6819C201.398 25.4707 199.732 24.4014 199.523 23.1217C199.176 21.0707 202.005 16.1449 203.22 14.2867C206.032 10.0445 212.991 2.99759 218.91 4.15455C221.426 4.64538 221.617 7.38002 221.426 9.34335C220.854 15.7592 218.146 24.2261 216.827 30.8348C216.15 34.2355 214.224 41.2124 214.675 44.3151C215.039 46.7868 216.81 49.2936 219.743 48.3645C223.908 47.0498 227.119 42.3693 228.664 38.7232C233.506 27.3288 233.992 14.9704 236.248 3.03265C236.491 1.78804 237.22 0.999202 238.453 0.50837C239.598 0.0525975 243.364 -0.280467 244.423 0.280484C244.77 0.455781 245.187 0.999202 245.187 1.38486C244.215 6.486 243.468 11.6222 242.531 16.7234C240.934 25.4181 238.643 34.0953 237.776 42.8602C237.758 43.0355 237.776 43.2283 237.845 43.3861C239.598 48.049 243.243 43.3685 244.84 41.0721C247.825 36.7598 248.727 31.0451 249.595 25.9265C249.751 25.0324 249.977 24.0683 250.081 23.1918C250.324 21.0707 249.352 19.4931 251.869 18.266C255.236 16.6182 258.169 17.6174 257.787 21.509C258.134 21.3337 258.204 20.8604 258.533 20.5098C265.024 13.27 276.844 12.7091 277 24.4364C277.139 34.218 270.196 49.4864 257.353 47.6808C257.301 47.6808 257.249 47.6633 257.197 47.6458L254.993 47.0498C254.281 46.8569 253.587 47.3478 253.517 48.084C253.275 51.3446 252.684 59.5835 251.886 64.5444C251.643 66.052 250.185 65.9819 249.213 65.9118L247.929 65.7189C245.43 65.3333 242.982 64.6321 240.657 63.6154C239.858 63.2648 239.147 62.7213 238.626 62.0377H238.609ZM264.799 21.9472C260.321 22.4556 257.336 28.2754 256.364 31.8515C255.878 33.6921 254.784 38.2499 254.784 39.9853C254.784 41.5805 256.572 42.5622 258.117 42.6849C264.191 43.1231 267.506 35.112 268.201 30.5368C268.582 28.0651 269.103 21.4564 264.799 21.9472Z" fill="#341514"/>
<path d="M125.483 48.2944C126.039 48.4171 125.865 48.1191 126.039 47.9263C129.041 44.3853 131.228 40.5288 135.376 37.8642C137.216 36.6897 140.965 35.077 142.405 37.5662C144.002 40.3009 140.913 41.0021 139.177 42.0188C136.469 43.614 134.335 46.261 132.113 48.4522C131.835 48.7327 131.697 49.1358 131.783 49.5215C132.148 51.1342 133.536 54.9207 133.866 55.7446C134.369 57.0067 135.654 60.4075 136.695 61.0911C138.101 62.0202 140.166 61.2138 141.294 60.1971C141.85 59.6887 143.342 56.8139 144.175 58.6895C144.956 60.425 144.401 61.5294 143.377 62.9668C142.006 64.9126 139.646 66.8759 137.268 67.6472C129.978 70.0313 128.139 62.4058 126.663 56.9892C126.368 55.9198 124.841 55.7971 124.459 56.8314C124.459 56.8314 124.459 56.8314 124.459 56.8489C123.348 60.0919 123.539 65.4735 122.272 68.401C121.856 69.3651 121.283 69.7683 120.242 70.1014C119.148 70.452 115.226 70.9604 114.67 69.891C114.184 68.9444 115.503 65.158 115.833 63.9835L115.417 63.8959C111.98 70.7851 99.97 78.2001 94.4855 69.0145L94.0516 68.8918C91.8995 73.1691 85.5819 77.5691 81 73.7476C80.8785 73.6424 80.7744 73.5022 80.7049 73.3619L80.3058 72.5205C79.9066 71.7141 78.7958 71.644 78.2751 72.3803C75.2205 76.8153 68.5211 80.216 64.2689 75.2727C63.9912 74.9396 63.7656 74.589 63.54 74.2384C63.0887 73.4846 62.0126 73.4671 61.5267 74.2209C58.8192 78.4631 52.1371 83.5817 48.4403 78.4806C45.0559 73.8177 49.4817 65.456 50.6966 59.6887C50.8875 58.7947 50.0197 58.0409 49.1519 58.3565L47.0692 59.1103C46.7221 59.233 46.4444 59.531 46.3403 59.8816C44.5526 66.1397 42.6435 72.8536 39.5888 78.6384C38.6169 80.4965 38.0268 82.0567 35.5276 82.2495C34.1738 82.3547 33.844 81.9515 34.087 80.6893C34.5903 78.0424 37.0028 73.7826 38.0615 70.9954C39.0855 68.3134 41.5327 62.0202 41.255 59.3907C41.0641 57.4625 39.5021 56.1477 40.1095 53.9215C41.0988 50.3805 48.718 48.5223 48.4924 52.449C48.4403 53.3956 49.5511 53.9565 50.3495 53.4482C51.6338 52.6067 52.9876 51.5549 53.3521 51.2219C54.3761 50.3103 56.0769 47.3478 57.9167 49.1884C58.1423 49.4163 59.4266 51.7653 59.5134 52.0808C60.0861 54.1844 57.7605 58.4967 56.9968 60.723C56.0249 63.5628 53.7339 70.452 54.2893 73.1691C54.7579 75.483 57.7431 72.8536 58.4547 72.0823C62.7763 67.3668 62.0647 63.0544 64.564 57.8131C67.2541 52.151 74.1271 44.7534 81.486 46.5765C81.6769 46.6291 81.8504 46.7167 82.0066 46.857L82.2323 47.0673C82.7182 47.5056 83.4819 47.4705 83.8984 46.9797C85.4952 45.104 89.8515 44.2626 90.1639 47.0323C90.3548 48.6976 88.2374 54.6051 87.7167 56.7087C86.9878 59.6011 85.5646 64.3692 85.8943 67.209C86.1894 69.6106 88.1159 69.7859 89.8168 68.2783C90.1813 67.9628 92.802 64.6321 92.8888 64.3516C93.1491 63.5102 92.8541 61.8098 92.9408 60.7931C93.34 56.3055 95.093 51.7127 97.974 48.1191C100.942 44.4028 107.19 39.9327 112.379 42.0012C118.35 44.3678 116.423 54.1844 109.915 53.9215C105.645 53.7462 108.856 50.994 109.429 49.4514C110.262 47.19 109.394 45.5773 106.791 46.9797C101.966 49.5741 98.3038 60.7581 101.306 65.1755C103.181 67.9452 106.964 66.5253 109.238 65.0704C112.952 62.6863 114.965 59.3557 117.187 55.8147C117.274 55.692 117.326 55.5517 117.343 55.394C119.044 45.4546 121.509 35.6029 122.845 25.611C123.019 24.3138 122.741 21.8421 123.695 21.0006C124.945 19.8787 131.141 18.7919 130.985 21.6142C129.857 27.0484 128.52 32.4651 127.444 37.8993C126.75 41.3527 126.247 44.8761 125.414 48.2944H125.483ZM78.6396 51.1342C72.808 51.9406 68.8162 63.072 69.0765 67.7875C69.25 70.9078 71.2286 72.3452 74.0923 70.2767C77.5462 67.7699 79.6115 62.178 80.514 58.2864C80.9653 56.3055 82.562 50.5733 78.6396 51.1167V51.1342Z" fill="#341514"/>
<path d="M13.607 77.8145C17.9112 81.6184 25.4437 76.9029 28.6025 73.695C29.6265 72.6607 31.8307 69.26 33.0976 69.1022C35.0762 68.8568 35.2151 71.2233 34.8332 72.538C33.9134 75.6408 30.3207 80.181 27.752 82.3021C18.5708 89.8574 4.46042 88.5602 0.989243 76.5348C-3.45387 61.1437 7.77539 33.7798 22.5279 25.4181C34.9721 18.3537 42.5566 26.1193 40.1441 38.3025C39.6755 40.6339 38.0788 45.8753 36.0481 47.2602C34.0175 48.645 30.8414 48.1191 30.4595 45.5422C30.2513 44.1574 32.386 40.0204 32.872 38.3025C33.8092 34.9192 34.92 28.2054 28.9669 29.6428C21.1221 31.5535 14.2318 47.2952 12.3226 54.0442C10.6738 59.8816 8.46963 73.2392 13.6243 77.8145H13.607Z" fill="#341514"/>
<path d="M168.335 59.9341C167.988 59.0927 166.842 58.9524 166.304 59.7062C166.026 60.0919 165.749 60.46 165.419 60.8106C161.913 64.6671 155.682 67.5595 151.413 62.9142C146.397 57.4449 149.365 46.5414 153.357 41.1422C156.359 37.0929 164.742 30.5718 170.001 34.516C170.348 34.779 170.227 35.41 170.643 34.9192C171.615 29.3623 173.212 23.6301 173.732 18.0205C174.045 14.5847 172.778 12.3059 177.898 11.9202C180.519 11.7274 182.584 11.6923 182.046 14.7951C179.894 26.5575 176.475 38.32 174.444 50.0649C174.08 52.186 172.708 56.8664 176.613 56.2879C179.269 55.9023 181.369 50.5031 182.619 50.2928C184.267 50.0298 184.424 51.8003 184.163 52.9573C183.886 54.2369 181.369 57.7429 180.38 58.8122C176.787 62.6337 170.4 64.9651 168.335 59.9341ZM165.801 37.9518C159.275 38.916 154.138 52.6242 156.932 57.5501C158.112 59.6536 160.906 58.6018 162.434 57.3923C165.54 54.9732 167.12 50.0123 168.057 46.4538C168.369 45.2617 169.272 42.0187 169.272 40.9845C169.272 39.0913 167.901 37.6363 165.801 37.9343V37.9518Z" fill="#341514"/>
<path d="M149.347 18.9496C155.005 17.9679 154.016 26.0491 152.714 29.0993C152.263 30.1686 151.395 31.4307 150.649 32.3598C150.128 33.0084 148.237 35.1646 147.594 35.4976C146.258 36.2163 144.245 34.9367 144.245 33.5869C144.245 32.6753 146.362 31.6411 147.004 30.7646C149.156 27.8547 146.727 27.3814 146.067 25.1025C145.963 24.7168 145.737 23.1918 145.755 22.8236C145.859 21.3862 147.785 19.2125 149.33 18.9496H149.347Z" fill="#341514"/>
</g>
<defs>
<clipPath id="clip0_41_293">
<rect width="277" height="87" fill="white"/>
</clipPath>
</defs>
</svg> 